PathFileType  4	(X/Y/Z) C:\Users\antoi\Documents\MyRepositories\mobilecap\ResultsAnalysis
DataRate	CameraRate	NumFrames	NumMarkers	Units	OrigDataRate	OrigDataStartFrame	OrigNumFrames
100.0	100.0	4	51	mm	100.0	859	2288
Frame#	Time	r_knee			r_shank_antsup			r_ankle			r_calc			r_5meta			r_toe			L_knee			L_shank_antsup			L_ankle			L_calc			L_5meta			L_toe			r_sh2			r_sh3			r_sh4			L_sh2			L_sh3			r_thigh1			r_thigh2			r_thigh3			r_thigh4			r_thigh5			L_thigh1			L_thigh2			L_thigh3			L_thigh4			r.ASIS			r.PSIS			L.ASIS			L.PSIS			C7			R_Shoulder			L_Shoulder			R_Sternum			L_Sternum			R_humerus			R_elbow_med			R_elbow_lat			R_forearm			R_wrist_radius			R_wrist_ulna			L_humerus			L_elbow_med			L_elbow_lat			L_forearm			L_wrist_radius			L_wrist_ulna			R_HJC			L_HJC			R_HJC_reg			L_HJC_reg			
		X1	Y1	Z1	X2	Y2	Z2	X3	Y3	Z3	X4	Y4	Z4	X5	Y5	Z5	X6	Y6	Z6	X7	Y7	Z7	X8	Y8	Z8	X9	Y9	Z9	X10	Y10	Z10	X11	Y11	Z11	X12	Y12	Z12	X13	Y13	Z13	X14	Y14	Z14	X15	Y15	Z15	X16	Y16	Z16	X17	Y17	Z17	X18	Y18	Z18	X19	Y19	Z19	X20	Y20	Z20	X21	Y21	Z21	X22	Y22	Z22	X23	Y23	Z23	X24	Y24	Z24	X25	Y25	Z25	X26	Y26	Z26	X27	Y27	Z27	X28	Y28	Z28	X29	Y29	Z29	X30	Y30	Z30	X31	Y31	Z31	X32	Y32	Z32	X33	Y33	Z33	X34	Y34	Z34	X35	Y35	Z35	X36	Y36	Z36	X37	Y37	Z37	X38	Y38	Z38	X39	Y39	Z39	X40	Y40	Z40	X41	Y41	Z41	X42	Y42	Z42	X43	Y43	Z43	X44	Y44	Z44	X45	Y45	Z45	X46	Y46	Z46	X47	Y47	Z47	X48	Y48	Z48	X49	Y49	Z49	X50	Y50	Z50	X51	Y51	Z51	

859	8.58000000	-195.78356	454.84536	-418.15876	-138.07926	355.19779	-433.06674	-240.24320	93.51670	-439.31940	-289.54007	52.11128	-490.74909	-131.17540	43.71994	-403.08950	-93.67964	60.71135	-444.83065	-185.34878	456.07540	-815.65155	-125.81905	355.82504	-769.95436	-250.02429	92.49156	-801.71805	-299.07266	53.17185	-754.73445	-133.53668	37.79125	-818.76138	-94.49170	58.40219	-766.33896	-159.52847	245.05880	-442.31782	-195.83407	359.90830	-384.29148	-229.14812	254.32080	-400.25209	-178.45572	385.99249	-837.06755	-204.02231	268.19210	-850.32766	-480.57642	558.96575	-457.63041	-375.45658	560.40047	-444.37613	-354.60076	517.09361	-394.59091	-487.06976	459.49422	-405.37252	-372.32968	462.57445	-391.48301	-461.07644	545.36279	-810.86608	-328.54892	551.99291	-807.93243	-470.03502	438.36868	-847.39551	-328.63437	447.33139	-843.39640	-514.47601	597.40468	-507.75229	-697.29710	575.06921	-581.56318	-505.86219	591.58195	-750.68803	-698.33346	573.07154	-695.16316	-599.42258	1040.78461	-619.68069	-556.89549	1000.56411	-469.27420	-535.28968	1017.95301	-771.89326	-487.22714	967.81477	-596.10963	-484.99030	968.27698	-641.11670	-570.15167	880.44277	-397.12559	-691.48604	698.18742	-429.33194	-651.20840	713.99393	-356.64774	-536.36322	723.09312	-399.14969	-454.72519	749.79293	-453.94321	-442.62140	715.02122	-442.88924	-536.70067	878.12846	-851.91161	-640.46857	702.27721	-832.11324	-609.34194	710.07167	-905.09206	-511.60010	718.96642	-858.83086	-421.82092	749.59820	-772.34429	-412.45977	718.33727	-777.49367	-574.51395	499.42492	-532.63797	-562.86311	493.45364	-721.56264	-554.63895	506.42065	-539.70654	-556.10272	503.59879	-700.15936	
860	8.59000000	-195.86227	454.85581	-418.22967	-138.17343	355.15694	-433.25552	-240.23528	93.54412	-439.31276	-289.56219	52.08438	-490.80430	-131.18328	43.73435	-403.09261	-93.67816	60.69392	-444.88984	-185.39135	455.98879	-815.50887	-125.93555	355.85505	-769.99301	-250.01226	92.39094	-801.66842	-298.89562	53.46858	-755.63366	-133.54704	37.72258	-818.78727	-94.55868	58.28234	-766.31507	-159.59430	245.02491	-442.32838	-196.04304	360.03001	-384.06652	-229.17733	254.31237	-400.28505	-178.52899	385.99567	-837.00401	-204.13670	268.16906	-850.23380	-480.63691	558.98647	-457.61094	-375.43579	560.24663	-444.59759	-354.65147	517.13314	-394.60570	-487.13826	459.55529	-405.36936	-372.40974	462.58329	-391.53315	-461.10760	545.32381	-810.95859	-328.55383	551.94696	-807.84671	-470.09384	438.29385	-847.38012	-328.65198	447.28650	-843.36040	-513.93910	597.42549	-507.48022	-696.91058	575.55639	-581.62075	-505.47819	591.30947	-750.53751	-697.88476	573.51383	-695.21559	-596.38260	1040.75977	-619.43187	-554.03924	1000.43824	-468.94280	-532.42363	1017.81421	-771.44777	-484.56158	967.45583	-596.04665	-482.32982	967.82516	-640.97494	-567.76586	880.47664	-396.93811	-689.53710	698.46072	-428.42695	-649.19592	714.29879	-356.01227	-534.33675	723.04527	-398.59546	-452.70010	749.38378	-453.56362	-440.65613	714.68618	-442.38774	-534.29520	878.10522	-851.77454	-638.75519	702.29220	-831.95960	-607.33261	710.26355	-905.25735	-509.60857	718.83632	-858.86885	-419.96550	749.20329	-772.06501	-410.65481	717.86253	-777.25949	-574.40440	499.58821	-532.46947	-562.66592	493.41532	-721.38235	-554.47429	506.42235	-539.44339	-555.85128	503.53569	-699.97723	
861	8.60000000	-195.95353	454.85238	-418.30733	-138.25611	355.16305	-433.42656	-240.19643	93.59367	-439.28861	-289.56934	52.03855	-490.85924	-131.18109	43.76111	-403.08465	-93.66814	60.65389	-444.96699	-185.44673	455.92545	-815.38891	-126.01154	355.84245	-770.02266	-249.97354	92.18797	-801.56836	-298.57896	54.14548	-757.48709	-133.57277	37.62152	-818.82987	-94.57732	58.14305	-766.37579	-159.57061	244.89305	-442.40125	-196.30951	360.26069	-383.63333	-229.19981	254.32809	-400.29345	-178.62555	385.95560	-836.93114	-204.27175	268.22916	-850.20057	-480.69193	559.04777	-457.56938	-375.56028	560.34809	-444.65061	-354.66828	517.20646	-394.64232	-487.23091	459.58065	-405.40129	-372.44030	462.61546	-391.60465	-461.13016	545.29073	-811.09833	-328.53666	551.85863	-807.74313	-470.15570	438.18635	-847.36491	-328.65944	447.17102	-843.22498	-513.53432	596.96963	-508.07008	-696.32949	576.02101	-581.60904	-505.13120	591.00725	-750.41514	-697.38073	573.99036	-695.35473	-593.10496	1040.67150	-619.26367	-550.93530	1000.27334	-468.72734	-529.30840	1017.57702	-771.18678	-481.70464	966.98806	-595.94955	-479.40724	967.20906	-640.87877	-565.11945	880.45889	-396.73097	-687.36919	698.69431	-427.72111	-646.97160	714.66294	-355.28679	-532.15642	722.97856	-398.04956	-450.48784	748.96823	-453.24199	-438.58019	714.24843	-441.95423	-531.64823	878.07403	-851.74804	-636.98351	702.35518	-831.90171	-605.23912	710.43331	-905.44406	-507.51690	718.66389	-858.83531	-417.92222	748.66418	-771.82347	-408.70574	717.32748	-777.07064	-574.26395	499.44889	-532.68262	-562.64858	493.33579	-721.60475	-554.42678	506.46727	-539.89908	-555.90555	503.60987	-699.95925	
862	8.61000000	-196.04943	454.85309	-418.38252	-138.30477	355.20270	-433.52726	-240.16924	93.64092	-439.27201	-289.57506	51.98836	-490.93038	-131.17226	43.79476	-403.08587	-93.65528	60.63259	-445.02798	-185.53873	455.93677	-815.29703	-126.04224	355.85534	-769.88823	-249.93866	91.98775	-801.50163	-298.52990	54.14976	-757.84779	-133.59465	37.53168	-818.87556	-94.55106	58.07547	-766.52206	-159.63151	244.97501	-442.54783	-196.38502	360.43569	-383.47167	-229.21926	254.33050	-400.28649	-178.73759	385.87191	-836.77510	-204.32599	268.32329	-850.21575	-480.77278	559.15802	-457.57375	-375.79048	560.66384	-444.48914	-354.66861	517.26841	-394.71997	-487.27475	459.58728	-405.45786	-372.44673	462.66681	-391.65571	-461.13251	545.25294	-811.18383	-328.52035	551.77113	-807.67672	-470.17294	438.08584	-847.32356	-328.62383	447.09348	-843.04572	-513.24276	596.17509	-509.35260	-695.72703	576.49491	-581.62568	-504.73239	590.71316	-750.40125	-696.85707	574.52913	-695.42919	-589.62759	1040.64792	-619.06483	-547.58928	1000.00857	-468.55658	-525.90261	1017.29035	-771.10538	-478.59736	966.22535	-595.85879	-476.25500	966.44271	-640.71482	-562.25147	880.36614	-396.47470	-685.12886	698.88908	-427.32990	-644.53375	714.93073	-354.61084	-529.79695	722.80957	-397.63391	-448.10737	748.49627	-452.89510	-436.28609	713.69610	-441.67510	-528.79157	877.94914	-851.61501	-635.04323	702.49230	-832.01626	-602.95485	710.54251	-905.47805	-505.27755	718.43378	-858.72984	-415.68714	748.00609	-771.57028	-406.62898	716.72997	-776.83189	-574.12684	499.10845	-533.20362	-562.79455	493.25140	-722.15101	-554.54572	506.55459	-540.99027	-556.12626	503.80489	-700.19095	
